<?xml version="1.0" encoding="UTF-8" standalone="no"?>
<!-- Created with Inkscape (http://www.inkscape.org/) -->

<svg
   width="256"
   height="256"
   viewBox="0 0 67.733332 67.733333"
   version="1.1"
   id="svg1"
   inkscape:version="1.4.2 (ebf0e940d0, 2025-05-08)"
   sodipodi:docname="icon.svg"
   xmlns:inkscape="http://www.inkscape.org/namespaces/inkscape"
   xmlns:sodipodi="http://sodipodi.sourceforge.net/DTD/sodipodi-0.dtd"
   xmlns="http://www.w3.org/2000/svg"
   xmlns:svg="http://www.w3.org/2000/svg">
  <sodipodi:namedview
     id="namedview1"
     pagecolor="#ffffff"
     bordercolor="#000000"
     borderopacity="0.25"
     inkscape:showpageshadow="2"
     inkscape:pageopacity="0.0"
     inkscape:pagecheckerboard="0"
     inkscape:deskcolor="#d1d1d1"
     inkscape:document-units="px"
     inkscape:zoom="2.9657019"
     inkscape:cx="86.994584"
     inkscape:cy="119.53326"
     inkscape:window-width="2544"
     inkscape:window-height="1388"
     inkscape:window-x="0"
     inkscape:window-y="0"
     inkscape:window-maximized="0"
     inkscape:current-layer="layer1" />
  <defs
     id="defs1">
    <inkscape:path-effect
       effect="bspline"
       id="path-effect25"
       is_visible="true"
       lpeversion="1.3"
       weight="33.333333"
       steps="2"
       helper_size="0"
       apply_no_weight="true"
       apply_with_weight="true"
       only_selected="false"
       uniform="false" />
    <inkscape:path-effect
       effect="bspline"
       id="path-effect24"
       is_visible="true"
       lpeversion="1.3"
       weight="33.333333"
       steps="2"
       helper_size="0"
       apply_no_weight="true"
       apply_with_weight="true"
       only_selected="false"
       uniform="false" />
    <inkscape:path-effect
       effect="bspline"
       id="path-effect23"
       is_visible="true"
       lpeversion="1.3"
       weight="33.333333"
       steps="2"
       helper_size="0"
       apply_no_weight="true"
       apply_with_weight="true"
       only_selected="false"
       uniform="false" />
    <inkscape:path-effect
       effect="bspline"
       id="path-effect21"
       is_visible="true"
       lpeversion="1.3"
       weight="33.333333"
       steps="2"
       helper_size="0"
       apply_no_weight="true"
       apply_with_weight="true"
       only_selected="false"
       uniform="false" />
    <inkscape:path-effect
       effect="bspline"
       id="path-effect20"
       is_visible="true"
       lpeversion="1.3"
       weight="33.333333"
       steps="2"
       helper_size="0"
       apply_no_weight="true"
       apply_with_weight="true"
       only_selected="false"
       uniform="false" />
    <inkscape:path-effect
       effect="bspline"
       id="path-effect19"
       is_visible="true"
       lpeversion="1.3"
       weight="33.333333"
       steps="2"
       helper_size="0"
       apply_no_weight="true"
       apply_with_weight="true"
       only_selected="false"
       uniform="false" />
    <inkscape:path-effect
       effect="bspline"
       id="path-effect18"
       is_visible="true"
       lpeversion="1.3"
       weight="33.333333"
       steps="2"
       helper_size="0"
       apply_no_weight="true"
       apply_with_weight="true"
       only_selected="false"
       uniform="false" />
    <inkscape:path-effect
       effect="bspline"
       id="path-effect17"
       is_visible="true"
       lpeversion="1.3"
       weight="33.333333"
       steps="2"
       helper_size="0"
       apply_no_weight="true"
       apply_with_weight="true"
       only_selected="false"
       uniform="false" />
    <inkscape:path-effect
       effect="bspline"
       id="path-effect16"
       is_visible="true"
       lpeversion="1.3"
       weight="33.333333"
       steps="2"
       helper_size="0"
       apply_no_weight="true"
       apply_with_weight="true"
       only_selected="false"
       uniform="false" />
    <inkscape:path-effect
       effect="bspline"
       id="path-effect9"
       is_visible="true"
       lpeversion="1.3"
       weight="33.333333"
       steps="2"
       helper_size="0"
       apply_no_weight="true"
       apply_with_weight="true"
       only_selected="false"
       uniform="false" />
    <inkscape:path-effect
       effect="bspline"
       id="path-effect8"
       is_visible="true"
       lpeversion="1.3"
       weight="33.333333"
       steps="2"
       helper_size="0"
       apply_no_weight="true"
       apply_with_weight="true"
       only_selected="false"
       uniform="false" />
    <inkscape:path-effect
       effect="bspline"
       id="path-effect7"
       is_visible="true"
       lpeversion="1.3"
       weight="33.333333"
       steps="2"
       helper_size="0"
       apply_no_weight="true"
       apply_with_weight="true"
       only_selected="false"
       uniform="false" />
    <inkscape:path-effect
       effect="bspline"
       id="path-effect6"
       is_visible="true"
       lpeversion="1.3"
       weight="33.333333"
       steps="2"
       helper_size="0"
       apply_no_weight="true"
       apply_with_weight="true"
       only_selected="false"
       uniform="false" />
    <inkscape:path-effect
       effect="bspline"
       id="path-effect5"
       is_visible="true"
       lpeversion="1.3"
       weight="33.333333"
       steps="2"
       helper_size="0"
       apply_no_weight="true"
       apply_with_weight="true"
       only_selected="false"
       uniform="false" />
    <inkscape:path-effect
       effect="bspline"
       id="path-effect4"
       is_visible="true"
       lpeversion="1.3"
       weight="33.333333"
       steps="2"
       helper_size="0"
       apply_no_weight="true"
       apply_with_weight="true"
       only_selected="false"
       uniform="false" />
    <inkscape:path-effect
       effect="bspline"
       id="path-effect3"
       is_visible="true"
       lpeversion="1.3"
       weight="33.333333"
       steps="2"
       helper_size="0"
       apply_no_weight="true"
       apply_with_weight="true"
       only_selected="false"
       uniform="false" />
  </defs>
  <g
     inkscape:label="Layer 1"
     inkscape:groupmode="layer"
     id="layer1">
    <path
       id="path10"
       style="fill:#000000;stroke-width:2.08885"
       d="M 48.278555,12.7 C 35.380449,12.6989 15.346982,22.144443 15.345833,34.1577 15.344633,46.172497 36.576333,55.034433 49.476088,55.033333 62.374195,55.032233 28.237424,46.756178 28.236239,34.742919 28.235139,22.731192 61.175012,12.701069 48.278555,12.7 Z m -7.438674,15.74314 a 6.8605221,6.7113185 0 0 0 -6.86085,6.710588 6.8605221,6.7113185 0 0 0 6.86085,6.71164 6.8605221,6.7113185 0 0 0 6.860848,-6.71164 6.8605221,6.7113185 0 0 0 -6.860848,-6.710588 z" />
    <path
       style="fill:#000000;stroke-width:0.264583"
       d="m 15.493568,18.958061 c 0.237906,0.223036 0.713716,0.669108 1.115184,0.951622 0.401468,0.282513 0.728581,0.401464 1.174659,0.267638 0.446077,-0.133826 1.01109,-0.520413 1.323341,-1.040837 0.312252,-0.520424 0.371727,-1.17465 0.341987,-1.650463 C 19.419,17.010208 19.30005,16.712832 19.225704,16.534401 19.151358,16.35597 19.121622,16.296495 19.017538,16.147804 18.913454,15.999112 18.735029,15.761212 18.645815,15.077223 18.5566,14.393235 18.5566,13.263208 18.764771,12.177756 18.972942,11.092304 19.389268,10.05149 19.032398,8.7727341 18.675528,7.4939782 17.545501,5.9773646 15.954489,5.0703488 14.363478,4.1633329 12.311588,3.8659575 10.661109,4.1930866 9.01063,4.5202157 7.7616533,5.4718169 6.9884588,6.6018792 6.2152644,7.7319414 5.917889,9.040393 6.1260631,10.155582 6.3342373,11.270772 7.0479377,12.192635 7.4791424,12.653577 7.910347,13.114518 8.0590347,13.114518 7.925209,12.504874 7.7913832,11.89523 7.3750577,10.675991 7.3007149,9.8581879 7.2263722,9.0403849 7.4940102,8.6240592 8.0293045,8.2671987 8.5645989,7.9103381 9.3675127,7.6129625 10.438099,7.4940106 c 1.070586,-0.1189519 2.408776,-0.059477 3.40501,0.5204281 0.996233,0.5799048 1.650459,1.6801939 1.769408,2.6764303 0.118948,0.996236 -0.297377,1.888362 -0.669107,2.631821 -0.37173,0.74346 -0.698844,1.338211 -0.773187,1.977587 -0.07434,0.639377 0.104082,1.323341 0.327121,1.903239 0.223038,0.579898 0.490676,1.055699 0.996224,1.754545 z"
       id="path16"
       inkscape:original-d="m 15.255663,18.735025 c 0.475811,0.446072 0.951621,0.892144 1.427431,1.338216 0.327126,0.118955 0.654239,0.237906 0.981358,0.356858 0.565036,-0.386604 1.130049,-0.773192 1.695074,-1.159787 0.05948,-0.654252 0.118953,-1.308478 0.178429,-1.962717 -0.118955,-0.297387 -0.237905,-0.594763 -0.356858,-0.892144 -0.02974,-0.05948 -0.05948,-0.118953 -0.08921,-0.178429 -0.178433,-0.23791 -0.356858,-0.47581 -0.535287,-0.713715 0,-1.130072 0,-2.260099 0,-3.390148 0.416343,-1.040855 0.832668,-2.081669 1.249002,-3.1225041 C 18.675526,7.4939797 17.5455,5.9773653 16.415451,4.4607204 14.363478,4.163333 12.311588,3.8659575 10.259657,3.5685761 9.01063,4.5202157 7.7616533,5.4718169 6.5126517,6.4234371 6.2152643,7.7319414 5.917889,9.040393 5.6205077,10.348871 c 0.7137294,0.921901 1.4274302,1.843764 2.1411456,2.765647 0.1486937,0 0.2973814,0 0.4460722,0 C 7.7913832,11.89523 7.3750577,10.675991 6.9587236,9.4567271 7.2263721,9.0403848 7.4940101,8.6240592 7.7616533,8.2077255 8.5645989,7.910338 9.3675127,7.6129625 10.170442,7.3155812 c 1.338243,0.059478 2.676433,0.1189527 4.014648,0.1784289 0.654253,1.100333 1.308479,2.2006221 1.962717,3.3009329 -0.416342,0.892162 -0.832667,1.784288 -1.249001,2.676432 -0.327126,0.594775 -0.654239,1.189526 -0.981359,1.784288 0.178433,0.683991 0.356858,1.367955 0.535287,2.051932 0.267648,0.475819 0.802929,1.42743 0.802929,1.42743 z"
       inkscape:path-effect="#path-effect16" />
    <path
       style="fill:#000000;stroke-width:0.264583"
       d="m 18.749894,48.354207 c -0.877275,0.05948 -2.453396,0.65424 -3.568582,1.382833 -1.115187,0.728592 -1.769412,1.59098 -2.512874,2.393918 -0.743462,0.802938 -1.576113,1.546376 -2.260096,2.423661 -0.6839821,0.877285 -1.2192578,1.888361 -1.5017705,2.825121 -0.2825127,0.93676 -0.3122502,1.79915 -0.2081643,2.661564 0.1040859,0.862413 0.3419868,1.724804 0.5798942,2.260092 0.2379074,0.535288 0.4758079,0.74345 0.9664946,1.085444 0.490687,0.341993 1.234125,0.817794 1.501766,0.802919 0.26764,-0.01487 0.05948,-0.520411 -0.07434,-1.397699 -0.133822,-0.877288 -0.193298,-2.126264 0.02974,-3.211715 0.223041,-1.08545 0.728579,-2.007314 1.278741,-2.765643 0.550162,-0.758328 1.144912,-1.35308 1.814028,-1.947849 0.669115,-0.594769 1.412553,-1.189519 2.081667,-1.814027 0.669114,-0.624508 1.263864,-1.278732 1.769417,-1.918108 0.505553,-0.639376 0.921879,-1.263864 1.040829,-1.814026 0.118951,-0.550161 -0.05947,-1.025961 -0.936749,-0.966485 z"
       id="path17"
       inkscape:original-d="m 19.448741,47.81892 c -1.576122,0.594765 -3.152243,1.189527 -4.728364,1.78429 -0.654252,0.862422 -1.308478,1.72481 -1.962717,2.587217 -0.832684,0.743469 -1.665335,1.486908 -2.498003,2.230361 -0.5352975,1.011116 -1.0705732,2.022192 -1.6058596,3.033289 -0.029739,0.862423 -0.059476,1.724813 -0.089214,2.587217 0.2379099,0.862423 0.47581,1.724814 0.7137151,2.587218 0.2379099,0.208172 0.4758103,0.416335 0.7137154,0.624501 0.7434681,0.475822 1.4869061,0.951622 2.2303591,1.42743 -0.208171,-0.505558 -0.416333,-1.011095 -0.6245,-1.516645 -0.05948,-1.249026 -0.118953,-2.498002 -0.178429,-3.747005 0.505558,-0.921898 1.011097,-1.843762 1.516645,-2.765644 0.594774,-0.594776 1.189525,-1.189527 1.784288,-1.78429 0.743468,-0.594775 1.486907,-1.189524 2.23036,-1.784289 0.594775,-0.654251 1.189526,-1.308475 1.784288,-1.962716 0.416342,-0.624512 0.832668,-1.249 1.249002,-1.873501 -0.178433,-0.475822 -0.356858,-0.951622 -0.535286,-1.427433 z"
       inkscape:path-effect="#path-effect17" />
    <path
       style="fill:#000000;stroke-width:0.264583"
       d="m 52.279641,33.395926 c -0.267644,0.118953 -0.80293,0.356859 -1.174657,0.698851 -0.371728,0.341992 -0.579891,0.788056 -0.535281,1.219263 0.04461,0.431207 0.341985,0.847532 0.788063,1.040829 0.446078,0.193297 1.040827,0.163558 1.992461,0.416336 0.951633,0.252779 2.260085,0.788055 3.300928,1.48691 1.040842,0.698855 1.814019,1.561243 2.334439,2.483134 0.52042,0.921892 0.788057,1.903231 0.832663,2.839991 0.0446,0.93676 -0.13382,1.828888 -0.446075,2.661563 -0.312255,0.832676 -0.758318,1.605852 -1.442304,2.334443 -0.683986,0.728591 -1.60585,1.412555 -2.33444,1.769412 -0.728589,0.356857 -1.263865,0.386593 -1.665332,0.431201 -0.401467,0.04461 -0.669106,0.104082 -0.758319,0.223036 -0.08921,0.118953 -1e-6,0.297379 0.267647,0.431202 0.267649,0.133822 0.713709,0.223034 1.397696,0.252773 0.683986,0.02974 1.60585,3e-6 2.676436,-0.252776 1.070586,-0.252778 2.289823,-0.728578 3.196843,-1.546389 0.907019,-0.817811 1.50177,-1.977575 1.873498,-3.256329 0.371728,-1.278753 0.520416,-2.676417 0.475806,-3.92543 -0.04461,-1.249014 -0.282509,-2.349302 -1.040845,-3.598318 -0.758335,-1.249015 -2.03705,-2.646679 -3.286063,-3.672651 -1.249014,-1.025972 -2.468252,-1.680198 -3.494227,-1.977579 -1.025975,-0.297381 -1.858624,-0.237906 -2.274959,-0.208168 -0.416335,0.02974 -0.416335,0.02974 -0.683978,0.148696 z"
       id="path24"
       inkscape:path-effect="#path-effect24"
       inkscape:original-d="m 52.547284,33.276973 c -0.535287,0.237906 -1.070573,0.475811 -1.605857,0.713717 -0.208171,0.446079 -0.416335,0.892143 -0.624501,1.338215 0.297386,0.416343 0.594762,0.832667 0.892143,1.249002 0.594775,-0.02974 1.189524,-0.05948 1.784289,-0.08922 1.308502,0.535297 2.616954,1.070573 3.925432,1.60586 0.773208,0.862422 1.546384,1.724811 2.319576,2.587217 0.267647,0.981377 0.535287,1.962716 0.802928,2.944075 -0.178432,0.892161 -0.356856,1.784289 -0.535286,2.676432 -0.44608,0.773208 -0.892143,1.546384 -1.338215,2.319575 -0.921901,0.683991 -1.843765,1.367955 -2.765647,2.051932 -0.535297,0.02974 -1.070573,0.05947 -1.605859,0.08921 -0.267648,0.05948 -0.535287,0.118952 -0.802929,0.17843 0.08921,0.178432 0.178427,0.356857 0.267642,0.535284 0.446082,0.08922 0.892143,0.17843 1.338218,0.267644 0.921898,-0.02974 1.843762,-0.05947 2.765644,-0.08921 1.21929,-0.475819 2.438527,-0.951619 3.657791,-1.42743 0.594775,-1.159812 1.189527,-2.319576 1.784289,-3.479363 0.148693,-1.39772 0.297381,-2.795384 0.446071,-4.193077 -0.237908,-1.100334 -0.47581,-2.200622 -0.713713,-3.300931 -1.278766,-1.397723 -2.557481,-2.795387 -3.83622,-4.193077 -1.219288,-0.654254 -2.438527,-1.308479 -3.657791,-1.962719 -0.832686,0.05948 -1.665335,0.118954 -2.498005,0.178429 z"
       transform="translate(0.44607203,-2.2303601)" />
    <path
       style="fill:#000000;stroke-width:0.264583"
       d="m 50.019543,50.108758 c -0.208167,-0.02974 -0.6245,-0.08922 -1.0111,-0.401471 -0.3866,-0.312256 -0.74345,-0.877268 -0.862401,-1.457168 -0.118951,-0.5799 0,-1.174651 0.223039,-1.561248 0.223039,-0.386597 0.550152,-0.565022 0.877275,-0.535282 0.327123,0.02974 0.654235,0.26764 0.877272,0.609633 0.223038,0.341993 0.341988,0.788057 0.386595,1.100309 0.04461,0.312252 0.01487,0.490677 -0.08921,0.743454 -0.104084,0.252777 -0.282509,0.579889 -0.327115,0.847536 -0.04461,0.267646 0.04461,0.475809 0.08921,0.579892 0.04461,0.104083 0.0446,0.104083 -0.163566,0.07435 z"
       id="path25"
       inkscape:path-effect="#path-effect25"
       inkscape:original-d="m 50.227711,50.138496 c -0.416335,-0.05948 -0.832668,-0.118951 -1.249003,-0.17843 -0.356864,-0.565036 -0.713713,-1.130048 -1.070573,-1.695071 0.118957,-0.594776 0.237906,-1.189527 0.35686,-1.784289 0.327125,-0.178433 0.654238,-0.356857 0.981358,-0.535287 0.327125,0.237911 0.654238,0.475811 0.981358,0.713716 0.118954,0.44608 0.237905,0.892144 0.356857,1.338215 -0.02974,0.178433 -0.05948,0.356857 -0.08921,0.535287 -0.178433,0.327125 -0.356857,0.654237 -0.535287,0.981358 0.08922,0.208171 0.17843,0.416335 0.267645,0.624501 z"
       transform="translate(2.4087889,-2.408789)" />
  </g>
</svg>
